<svg id="exKMcWtqr8i1" xmlns="http://www.w3.org/2000/svg" xmlns:xlink="http://www.w3.org/1999/xlink" viewBox="0 0 300 300" shape-rendering="geometricPrecision" text-rendering="geometricPrecision"><path d="M20,155.98361c0-71.79702,58.20298-130,130-130s130,58.20298,130,130-58.20298,130-130,130-130-58.20298-130-130Zm130,80c44.18278,0,80-35.81722,80-80s-35.81722-80-80-80-80,35.81722-80,80s35.81722,80,80,80Zm-91.03587-80c0-49.90482,40.75815-90.36067,91.03587-90.36067s91.03587,40.45585,91.03587,90.36067-40.75815,90.36067-91.03587,90.36067-91.03587-40.45585-91.03587-90.36067ZM150,273.16225c65.55836,0,118.70392-52.46266,118.70392-117.17864s-53.14556-117.17864-118.70392-117.17864-118.70392,52.46266-118.70392,117.17864s53.14556,117.17864,118.70392,117.17864Z" 
fill="rgb(233, 184, 94)" stroke-width="0"/></svg>
