<svg id="eWXb5UHTCFL1" xmlns="http://www.w3.org/2000/svg" xmlns:xlink="http://www.w3.org/1999/xlink" viewBox="0 0 300 300" shape-rendering="geometricPrecision" text-rendering="geometricPrecision"><path d="M20,150C20,78.20299,78.20298,20,150,20c47.89317,0,89.73736,25.89881,112.29148,64.45533l12.98599-24.4231L300,73.17743l-21.26687,39.99716-16.65182,30.44672-.33061-.17579-3.05047,4.35653-65.53216-45.88611l16.06014-22.93626l29.7571,20.83615c-17.53124-31.01919-50.81292-51.95868-88.9853-51.95868-56.41194,0-102.14286,45.73092-102.14286,102.14286s45.73092,102.14286,102.14286,102.14286c7.01974,0,13.87409-.70813,20.49551-2.05684l33.45838,18.22382c-16.43455,7.50692-34.7057,11.69016-53.9539,11.69016-71.79701,0-130-58.20298-130-130L20,150Z" transform="matrix(.958021-.051447 0.051858 0.965673-11.062036 13.380687)" 
fill="#061e2a" stroke-width="0"/></svg>
