<svg id="ebA1LTa4ijk1" xmlns="http://www.w3.org/2000/svg" xmlns:xlink="http://www.w3.org/1999/xlink" viewBox="0 0 300 300" shape-rendering="geometricPrecision" text-rendering="geometricPrecision"><path d="M27.25476,76.75224c-4.45667-4.45667-4.47588-11.66316-.0429-16.09613L60.6561,27.21187c4.43298-4.43298,11.63946-4.41377,16.09613.0429l80.31883,80.31883-7.07108,7.07108L76.75221,41.39691c-4.45667-4.45667-11.66315-4.47588-16.09613-.0429L41.35397,60.65612c-4.43298,4.43297-4.41377,11.63946.0429,16.09613l73.24777,73.24777-7.07106,7.07106L27.25476,76.75224ZM272.74524,223.24776c4.45667,4.45667,4.47588,11.66316.0429,16.09613L239.3439,272.78813c-4.43298,4.43298-11.63946,4.41377-16.09613-.0429L142.92894,192.4264L150,185.35534l73.24776,73.24776c4.45667,4.45667,11.66315,4.47588,16.09613.0429L258.646,239.34389c4.43298-4.43297,4.41377-11.63946-.0429-16.09613L185.35534,150l7.07108-7.07108l80.31882,80.31884ZM142.92893,192.42641v0l-35.35534-35.35534v0l35.35534,35.35534Zm49.49748-49.49748l-35.35534-35.35534v0l35.35534,35.35534Z" 
fill="cyan" stroke-width="0"/><path d="M223.24776,27.25476c4.45667-4.45667,11.66316-4.47588,16.09613-.0429L272.78813,60.6561c4.43298,4.43298,4.41377,11.63946-.0429,16.09613L199.49746,150l-7.07106-7.07106l66.1767-66.1767c4.45667-4.45667,4.47588-11.66315.0429-16.09613L239.34389,41.354c-4.43297-4.43298-11.63946-4.41377-16.09613.0429l-66.1767,66.1767-7.07107-7.07107L100.50252,150l7.07107,7.07107-66.1767,66.1767c-4.45667,4.45667-4.47588,11.66315-.0429,16.09613L60.6561,258.64601c4.43297,4.43298,11.63946,4.41377,16.09613-.0429l66.1767-66.1767l7.07106,7.07106-73.24777,73.24777c-4.45667,4.45667-11.66316,4.47588-16.09613.0429L27.21185,239.3439c-4.43298-4.43298-4.41377-11.63946.0429-16.09613L223.24776,27.25476ZM150.00001,199.49748l49.49747-49.49747L199.49747,150L150,199.49747l.00001.00001Z" transform="translate(0 0.000001)" 
fill="cyan" stroke-width="0"/></svg>
